<svg xmlns="http://www.w3.org/2000/svg" version="1.1" xmlns:xlink="http://www.w3.org/1999/xlink" xmlns:svgjs="http://svgjs.dev/svgjs" width="1000" height="1000" viewBox="0 0 1000 1000"><rect width="1000" height="1000" fill="#ffffff"></rect><g transform="matrix(0.7,0,0,0.7,149.84897959183672,150.19913061224486)"><svg viewBox="0 0 343 343" data-background-color="#ffffff" preserveAspectRatio="xMidYMid meet" height="999" width="1000" xmlns="http://www.w3.org/2000/svg" xmlns:xlink="http://www.w3.org/1999/xlink"><g id="tight-bounds" transform="matrix(1,0,0,1,0.07400000000001228,0.07400000000001228)"><svg viewBox="0 0 342.8515585177538 342.8515585177538" height="342.8515585177538" width="342.8515585177538"><g><svg></svg></g><g><svg viewBox="0 0 342.8515585177538 342.8515585177538" height="342.8515585177538" width="342.8515585177538"><g><path d="M0 171.426c0-94.676 76.75-171.426 171.426-171.426 94.676 0 171.426 76.75 171.426 171.426 0 94.676-76.75 171.426-171.426 171.426-94.676 0-171.426-76.75-171.426-171.426zM171.426 338.869c92.476 0 167.443-74.967 167.443-167.443 0-92.476-74.967-167.443-167.443-167.443-92.476 0-167.443 74.967-167.443 167.443 0 92.476 74.967 167.443 167.443 167.443z" data-fill-palette-color="tertiary" fill="#000000" stroke="transparent"></path><ellipse rx="164.56874808852183" ry="164.56874808852183" cx="171.4257792588769" cy="171.4257792588769" fill="#000000" stroke="transparent" stroke-width="0" fill-opacity="1" data-fill-palette-color="tertiary"></ellipse></g><g transform="matrix(1,0,0,1,64.84655864529836,87.14613951036898)"><svg viewBox="0 0 213.15844122715708 168.55927949701584" height="168.55927949701584" width="213.15844122715708"><g><svg viewBox="0 0 213.15844122715708 168.55927949701584" height="168.55927949701584" width="213.15844122715708"><g><svg viewBox="0 0 213.15844122715708 168.55927949701584" height="168.55927949701584" width="213.15844122715708"><g transform="matrix(1,0,0,1,0,102.17277376154777)"><svg viewBox="0 0 213.15844122715708 66.38650573546806" height="66.38650573546806" width="213.15844122715708"><g id="textblocktransform"><svg viewBox="0 0 213.15844122715708 66.38650573546806" height="66.38650573546806" width="213.15844122715708" id="textblock"><g><svg viewBox="0 0 213.15844122715708 44.16638216138403" height="44.16638216138403" width="213.15844122715708"><g transform="matrix(1,0,0,1,0,0)"><svg width="213.15844122715708" viewBox="1.4500000476837158 -37.099998474121094 181.9300079345703 37.69999694824219" height="44.16638216138403" data-palette-color="#ffffff"><path d="M1.45 0.45L1.85-3.45Q3.8-3.8 4.5-4.67 5.2-5.55 5.2-7.65L5.2-7.65 5.25-25.8Q5.25-27.35 4.93-27.93 4.6-28.5 3.75-28.5L3.75-28.5Q3.2-28.5 2.7-28.45 2.2-28.4 2.05-28.4L2.05-28.4 1.65-28.85 2.1-32.25 8.75-32.2Q10.9-32.2 13.43-32.3 15.95-32.4 16.95-32.45L16.95-32.45Q24-32.45 26.83-29.55 29.65-26.65 29.65-22.5L29.65-22.5Q29.65-19.5 27.95-16.82 26.25-14.15 23.45-12.55 20.65-10.95 17.45-10.95L17.45-10.95 13.2-10.95 13.15-7.8Q13.15-6.1 13.33-5.25 13.5-4.4 14.03-4.08 14.55-3.75 15.55-3.75L15.55-3.75Q16.2-3.75 16.78-3.8 17.35-3.85 17.55-3.85L17.55-3.85 17.75-3.5 17.25 0.2Q16.4 0.15 14.25 0.08 12.1 0 10.2 0L10.2 0Q8.55 0 5.53 0.18 2.5 0.35 1.45 0.45L1.45 0.45ZM17.3-15.55Q21.2-16.6 21.2-21.9L21.2-21.9Q21.2-24.75 19.65-26.05 18.1-27.35 14.75-27.35L14.75-27.35Q14.1-27.35 13.95-27.2 13.8-27.05 13.75-26.4L13.75-26.4Q13.45-21.95 13.3-16.1L13.3-16.1 17.3-15.55ZM29.95 0.35L30.4-3.25Q31.85-3.55 32.27-4.23 32.7-4.9 32.7-6.7L32.7-6.7 32.7-29.2Q32.7-30.55 32.47-31.13 32.25-31.7 31.57-31.88 30.9-32.05 29.3-32L29.3-32 29.05-32.3 29.4-35.4Q36.05-36.25 41-37.1L41-37.1 41.4-36Q39.75-31.65 39.75-5.45L39.75-5.45Q39.75-4.35 40.05-3.93 40.35-3.5 41.05-3.5L41.05-3.5 42.7-3.55 42.85-3.25 42.3 0.2Q38 0 35.9 0L35.9 0Q33.65 0 29.95 0.35L29.95 0.35ZM62.5 0.6Q60.15 0.6 58.8-0.35 57.45-1.3 57.25-3.15L57.25-3.15 56.75-3.35Q55.2-1.8 53.67-0.7 52.15 0.4 51.2 0.4L51.2 0.4Q49.25 0.4 47.62-0.63 46-1.65 45.07-3.45 44.15-5.25 44.15-7.4L44.15-7.4Q44.15-9 45-10.18 45.85-11.35 47.2-11.65L47.2-11.65 56.9-13.7 56.9-14.4Q56.9-16.35 55.8-17.43 54.7-18.5 52.7-18.5L52.7-18.5Q51.4-18.5 49.8-17.82 48.2-17.15 46.9-16.25L46.9-16.25 46.4-16.5 45.35-19.95Q48.1-21.45 50.95-22.68 53.8-23.9 55.05-23.9L55.05-23.9Q59.75-23.9 61.92-21.95 64.09-20 64.09-16.9L64.09-16.9Q64.09-16.2 63.6-12.3L63.6-12.3Q63.55-11.7 63.3-9.85 63.05-8 63.05-7.25L63.05-7.25Q63.05-6.4 63.5-5.88 63.95-5.35 64.7-5.35L64.7-5.35Q65.65-5.35 66.8-6L66.8-6 67.59-4.85Q66.59-3 65.15-1.35 63.7 0.3 62.5 0.6L62.5 0.6ZM53.6-5.1Q54.25-5.1 55.12-5.38 56-5.65 56.7-6.05L56.7-6.05 56.8-10.55 52.25-9.4Q51.65-9.25 51.4-8.93 51.15-8.6 51.15-8L51.15-8Q51.15-6.75 51.82-5.93 52.5-5.1 53.6-5.1L53.6-5.1ZM83.49-3.35Q84.59-3.6 85.07-4.17 85.54-4.75 85.59-5.95L85.59-5.95 85.69-13.85Q85.74-15.95 85.07-16.88 84.39-17.8 82.94-17.8L82.94-17.8Q81.54-17.8 79.49-16.3L79.49-16.3 79.34-13.2Q78.94-6.7 78.94-5.6L78.94-5.6Q78.94-4.5 79.24-4.08 79.54-3.65 80.34-3.65L80.34-3.65 81.44-3.7 81.54-3.45 80.99 0.2Q80.39 0.15 78.74 0.08 77.09 0 75.39 0L75.39 0Q73.59 0 71.57 0.1 69.54 0.2 68.94 0.25L68.94 0.25 69.44-3.4Q70.89-3.5 71.44-4.1 71.99-4.7 71.99-6.1L71.99-6.1 71.99-15.8Q71.99-17.55 71.52-18.15 71.04-18.75 69.59-18.75L69.59-18.75 68.84-18.75 68.64-19.05 68.99-22.2Q72.14-22.65 75.27-23.2 78.39-23.75 79.29-23.9L79.29-23.9 79.84-23.35Q79.74-23.05 79.54-21.98 79.34-20.9 79.24-19.85L79.24-19.85 79.49-19.65Q81.14-21.2 82.94-22.55 84.74-23.9 85.49-23.9L85.49-23.9Q89.29-23.9 91.32-22.2 93.34-20.5 93.34-17.4L93.34-17.4Q93.34-16 92.89-11.85L92.89-11.85Q92.39-6.85 92.39-5.65L92.39-5.65Q92.39-4.5 92.72-4.03 93.04-3.55 93.84-3.55L93.84-3.55 95.24-3.6 95.34-3.4 94.84 0.2Q94.19 0.15 92.47 0.08 90.74 0 88.99 0L88.99 0Q87.79 0 85.79 0.13 83.79 0.25 83.14 0.3L83.14 0.3 83.49-3.35ZM105.69 0.45L106.09-3.45Q108.04-3.8 108.74-4.67 109.44-5.55 109.44-7.65L109.44-7.65 109.49-25.8Q109.49-27.35 109.16-27.93 108.84-28.5 107.99-28.5L107.99-28.5Q107.44-28.5 106.94-28.45 106.44-28.4 106.29-28.4L106.29-28.4 105.89-28.85 106.34-32.25 112.99-32.2Q115.14-32.2 117.66-32.3 120.19-32.4 121.19-32.45L121.19-32.45Q128.24-32.45 131.06-29.55 133.89-26.65 133.89-22.5L133.89-22.5Q133.89-19.5 132.19-16.82 130.49-14.15 127.69-12.55 124.89-10.95 121.69-10.95L121.69-10.95 117.44-10.95 117.39-7.8Q117.39-6.1 117.56-5.25 117.74-4.4 118.26-4.08 118.79-3.75 119.79-3.75L119.79-3.75Q120.44-3.75 121.01-3.8 121.59-3.85 121.79-3.85L121.79-3.85 121.99-3.5 121.49 0.2Q120.64 0.15 118.49 0.08 116.34 0 114.44 0L114.44 0Q112.79 0 109.76 0.18 106.74 0.35 105.69 0.45L105.69 0.45ZM121.54-15.55Q125.44-16.6 125.44-21.9L125.44-21.9Q125.44-24.75 123.89-26.05 122.34-27.35 118.99-27.35L118.99-27.35Q118.34-27.35 118.19-27.2 118.04-27.05 117.99-26.4L117.99-26.4Q117.69-21.95 117.54-16.1L117.54-16.1 121.54-15.55ZM145.03 0.6Q139.48 0.6 136.41-2.53 133.34-5.65 133.34-11.2L133.34-11.2Q133.34-14.85 134.88-17.75 136.44-20.65 139.21-22.28 141.98-23.9 145.53-23.9L145.53-23.9Q154.44-23.9 154.44-14.75L154.44-14.75Q154.44-13.2 154.09-11.7L154.09-11.7 153.49-11.15 141.03-11.15Q141.13-8.15 142.66-6.58 144.19-5 146.84-5L146.84-5Q149.48-5 152.69-6.45L152.69-6.45 153.13-6.25 154.03-3.25Q152.13-1.8 149.59-0.6 147.03 0.6 145.03 0.6L145.03 0.6ZM140.94-14.35L146.59-14.7Q147.09-14.8 147.23-14.98 147.38-15.15 147.38-15.75L147.38-15.75Q147.38-19.25 144.69-19.25L144.69-19.25Q141.13-19.25 140.94-14.35L140.94-14.35ZM171.53-3.35Q172.63-3.6 173.11-4.17 173.58-4.75 173.63-5.95L173.63-5.95 173.73-13.85Q173.78-15.95 173.11-16.88 172.43-17.8 170.98-17.8L170.98-17.8Q169.58-17.8 167.53-16.3L167.53-16.3 167.38-13.2Q166.98-6.7 166.98-5.6L166.98-5.6Q166.98-4.5 167.28-4.08 167.58-3.65 168.38-3.65L168.38-3.65 169.48-3.7 169.58-3.45 169.03 0.2Q168.43 0.15 166.78 0.08 165.13 0 163.43 0L163.43 0Q161.63 0 159.61 0.1 157.58 0.2 156.98 0.25L156.98 0.25 157.48-3.4Q158.93-3.5 159.48-4.1 160.03-4.7 160.03-6.1L160.03-6.1 160.03-15.8Q160.03-17.55 159.56-18.15 159.08-18.75 157.63-18.75L157.63-18.75 156.88-18.75 156.68-19.05 157.03-22.2Q160.18-22.65 163.31-23.2 166.43-23.75 167.33-23.9L167.33-23.9 167.88-23.35Q167.78-23.05 167.58-21.98 167.38-20.9 167.28-19.85L167.28-19.85 167.53-19.65Q169.18-21.2 170.98-22.55 172.78-23.9 173.53-23.9L173.53-23.9Q177.33-23.9 179.36-22.2 181.38-20.5 181.38-17.4L181.38-17.4Q181.38-16 180.93-11.85L180.93-11.85Q180.43-6.85 180.43-5.65L180.43-5.65Q180.43-4.5 180.76-4.03 181.08-3.55 181.88-3.55L181.88-3.55 183.28-3.6 183.38-3.4 182.88 0.2Q182.23 0.15 180.51 0.08 178.78 0 177.03 0L177.03 0Q175.83 0 173.83 0.13 171.83 0.25 171.18 0.3L171.18 0.3 171.53-3.35Z" opacity="1" transform="matrix(1,0,0,1,0,0)" fill="#ffffff" class="wordmark-text-0" data-fill-palette-color="quaternary" id="text-0"></path></svg></g></svg></g><g transform="matrix(1,0,0,1,0,54.59300499651492)"><svg viewBox="0 0 213.15844122715708 11.793500738953133" height="11.793500738953133" width="213.15844122715708"><g transform="matrix(1,0,0,1,0,0)"><svg width="213.15844122715708" viewBox="3.6500000953674316 -35 645.199951171875 35.70000076293945" height="11.793500738953133" data-palette-color="#ffffff"><path d="M18.95-19.4Q25.55-17.55 28.9-15.05 32.25-12.55 32.25-8.4L32.25-8.4Q32.25-5.7 30.78-3.63 29.3-1.55 26.7-0.45 24.1 0.65 20.85 0.65L20.85 0.65Q17.3 0.65 14.1-0.85 10.9-2.35 8.2-5.05L8.2-5.05 8.2-0.05 3.65-0.05 3.65-11.6 6.55-11.75Q9.2-7.9 13-5.7 16.8-3.5 20.55-3.5L20.55-3.5Q23.35-3.5 25.13-4.7 26.9-5.9 26.9-7.95L26.9-7.95Q26.9-10.2 24.4-11.83 21.9-13.45 15.9-15L15.9-15Q9.65-16.65 6.75-19.33 3.85-22 3.85-25.9L3.85-25.9Q3.85-28.6 5.33-30.68 6.8-32.75 9.3-33.88 11.8-35 14.75-35L14.75-35Q21.7-35 26-29.9L26-29.9 26-34.3 30.55-34.3 30.55-22.9 27.75-22.75Q25.65-26.75 22.6-28.8 19.55-30.85 15.9-30.85L15.9-30.85Q12.95-30.85 11.08-29.58 9.2-28.3 9.2-26.15L9.2-26.15Q9.2-23.95 11.48-22.38 13.75-20.8 18.95-19.4L18.95-19.4ZM67.05-10.15L70.4-7.35Q67.95-3.75 64.17-1.55 60.4 0.65 55.25 0.65L55.25 0.65Q50.35 0.65 46.27-1.63 42.2-3.9 39.85-7.95 37.5-12 37.5-17.1L37.5-17.1Q37.5-22.35 39.8-26.43 42.1-30.5 45.95-32.75 49.8-35 54.25-35L54.25-35Q57.85-35 60.62-33.7 63.4-32.4 65.3-30.05L65.3-30.05 65.35-34.3 70-34.3 70-23.15 66.7-22.85Q63.1-30.85 55-30.85L55-30.85Q51.75-30.85 48.97-29.18 46.2-27.5 44.52-24.38 42.85-21.25 42.85-17.15L42.85-17.15Q42.85-13.25 44.5-10.18 46.15-7.1 48.97-5.35 51.8-3.6 55.25-3.6L55.25-3.6Q59.3-3.6 62.12-5.35 64.95-7.1 67.05-10.15L67.05-10.15ZM111-6.25L113.55-2.9Q110.4 0.7 106.25 0.7L106.25 0.7Q101.9 0.7 98.92-2.45 95.95-5.6 94.09-12.15L94.09-12.15 93.3-14.65 86.15-14.65 86.15-4.15 92.45-4.15 92.45 0 74.55 0 74.55-4.1 81-4.1 81-30.15 74.55-30.15 74.55-34.3 94.45-34.3Q100.3-34.3 103.7-31.65 107.09-29 107.09-24.45L107.09-24.45Q107.09-20.7 104.67-18.13 102.25-15.55 97.84-14.9L97.84-14.9 98.75-12.45Q100.3-8.05 102.2-6.05 104.09-4.05 106.5-4.05L106.5-4.05Q108-4.05 109.05-4.65 110.09-5.25 111-6.25L111-6.25ZM86.15-30.15L86.15-18.55 94.59-18.55Q97.8-18.55 99.9-20.13 102-21.7 102-24.45L102-24.45Q102-27.1 99.92-28.63 97.84-30.15 94.59-30.15L94.59-30.15 86.15-30.15ZM132.39-30.15L125.89-30.15 125.89-4.15 132.39-4.15 132.39 0 114.29 0 114.29-4.15 120.74-4.15 120.74-30.15 114.29-30.15 114.29-34.3 132.39-34.3 132.39-30.15ZM155.44-34.3Q159.44-34.3 162.47-33.02 165.49-31.75 167.14-29.35 168.79-26.95 168.79-23.65L168.79-23.65Q168.79-18.6 165.19-15.68 161.59-12.75 155.49-12.75L155.49-12.75 147.49-12.75 147.49-4.15 154.34-4.15 154.34 0 135.94 0 135.94-4.15 142.39-4.15 142.39-30.15 135.94-30.15 135.94-34.3 155.44-34.3ZM155.24-16.9Q158.94-16.9 161.32-18.48 163.69-20.05 163.69-23.7L163.69-23.7Q163.69-27.05 161.29-28.6 158.89-30.15 155.14-30.15L155.14-30.15 147.49-30.15 147.49-16.95 155.24-16.9ZM172.74-34.3L207.84-34.3 207.84-23.05 203.24-23.05 203.24-30.15 192.89-30.15 192.89-4.15 199.39-4.15 199.39 0 181.19 0 181.19-4.15 187.74-4.15 187.74-30.15 177.34-30.15 177.34-23.05 172.74-23.05 172.74-34.3ZM245.49-23.3L240.89-23.3 240.89-30.15 223.09-30.15 223.09-19.2 230.99-19.2 230.99-23.85 234.99-23.85 234.99-10.75 230.99-10.75 230.99-15.4 223.09-15.4 223.09-4.15 240.89-4.15 240.89-11 245.49-11 245.49 0 211.59 0 211.59-4.15 217.99-4.15 217.99-30.15 211.59-30.15 211.59-34.3 245.49-34.3 245.49-23.3ZM267.83-34.3Q273.18-34.3 277.68-32.38 282.18-30.45 284.86-26.58 287.53-22.7 287.53-17.15L287.53-17.15Q287.53-11.6 284.86-7.73 282.18-3.85 277.68-1.93 273.18 0 267.83 0L267.83 0 251.03 0 251.03-4.15 257.48-4.15 257.48-30.15 251.03-30.15 251.03-34.3 267.83-34.3ZM267.33-4.15Q273.73-4.15 277.93-7.33 282.13-10.5 282.13-17.15L282.13-17.15Q282.13-23.85 277.93-27 273.73-30.15 267.33-30.15L267.33-30.15 262.63-30.15 262.63-4.15 267.33-4.15ZM323.78-19.4Q330.38-17.55 333.73-15.05 337.08-12.55 337.08-8.4L337.08-8.4Q337.08-5.7 335.6-3.63 334.13-1.55 331.53-0.45 328.93 0.65 325.68 0.65L325.68 0.65Q322.13 0.65 318.93-0.85 315.73-2.35 313.03-5.05L313.03-5.05 313.03-0.05 308.48-0.05 308.48-11.6 311.38-11.75Q314.03-7.9 317.83-5.7 321.63-3.5 325.38-3.5L325.38-3.5Q328.18-3.5 329.95-4.7 331.73-5.9 331.73-7.95L331.73-7.95Q331.73-10.2 329.23-11.83 326.73-13.45 320.73-15L320.73-15Q314.48-16.65 311.58-19.33 308.68-22 308.68-25.9L308.68-25.9Q308.68-28.6 310.15-30.68 311.63-32.75 314.13-33.88 316.63-35 319.58-35L319.58-35Q326.53-35 330.83-29.9L330.83-29.9 330.83-34.3 335.38-34.3 335.38-22.9 332.58-22.75Q330.48-26.75 327.43-28.8 324.38-30.85 320.73-30.85L320.73-30.85Q317.78-30.85 315.9-29.58 314.03-28.3 314.03-26.15L314.03-26.15Q314.03-23.95 316.3-22.38 318.58-20.8 323.78-19.4L323.78-19.4ZM359.68-30.15L353.18-30.15 353.18-4.15 359.68-4.15 359.68 0 341.58 0 341.58-4.15 348.03-4.15 348.03-30.15 341.58-30.15 341.58-34.3 359.68-34.3 359.68-30.15ZM408.27-4.15L414.72-4.15 414.72 0 397.27 0 397.27-4.15 403.22-4.15 403.22-20.95Q403.22-23.35 403.82-27.2L403.82-27.2 390.17 0.35 387.57 0.35 374.02-27Q374.47-23.05 374.47-20.95L374.47-20.95 374.47-4.15 380.42-4.15 380.42 0 363.22 0 363.22-4.15 369.62-4.15 369.62-30.15 363.22-30.15 363.22-34.3 375.32-34.3 389.07-6.85 402.57-34.3 414.67-34.3 414.67-30.15 408.27-30.15 408.27-4.15ZM437.77-34.3Q441.77-34.3 444.8-33.02 447.82-31.75 449.47-29.35 451.12-26.95 451.12-23.65L451.12-23.65Q451.12-18.6 447.52-15.68 443.92-12.75 437.82-12.75L437.82-12.75 429.82-12.75 429.82-4.15 436.67-4.15 436.67 0 418.27 0 418.27-4.15 424.72-4.15 424.72-30.15 418.27-30.15 418.27-34.3 437.77-34.3ZM437.57-16.9Q441.27-16.9 443.65-18.48 446.02-20.05 446.02-23.7L446.02-23.7Q446.02-27.05 443.62-28.6 441.22-30.15 437.47-30.15L437.47-30.15 429.82-30.15 429.82-16.95 437.57-16.9ZM482.27-11.9L487.12-11.9 487.12 0 454.97 0 454.97-4.15 461.42-4.15 461.42-30.15 454.97-30.15 454.97-34.3 472.97-34.3 472.97-30.15 466.57-30.15 466.57-4.15 482.27-4.15 482.27-11.9ZM509.26-30.15L502.76-30.15 502.76-4.15 509.26-4.15 509.26 0 491.17 0 491.17-4.15 497.62-4.15 497.62-30.15 491.17-30.15 491.17-34.3 509.26-34.3 509.26-30.15ZM542.91-10.15L546.26-7.35Q543.81-3.75 540.04-1.55 536.26 0.65 531.11 0.65L531.11 0.65Q526.21 0.65 522.14-1.63 518.06-3.9 515.71-7.95 513.36-12 513.36-17.1L513.36-17.1Q513.36-22.35 515.66-26.43 517.96-30.5 521.81-32.75 525.66-35 530.11-35L530.11-35Q533.71-35 536.49-33.7 539.26-32.4 541.16-30.05L541.16-30.05 541.21-34.3 545.86-34.3 545.86-23.15 542.56-22.85Q538.96-30.85 530.86-30.85L530.86-30.85Q527.61-30.85 524.84-29.18 522.06-27.5 520.39-24.38 518.71-21.25 518.71-17.15L518.71-17.15Q518.71-13.25 520.36-10.18 522.01-7.1 524.84-5.35 527.66-3.6 531.11-3.6L531.11-3.6Q535.16-3.6 537.99-5.35 540.81-7.1 542.91-10.15L542.91-10.15ZM568.51-30.15L562.01-30.15 562.01-4.15 568.51-4.15 568.51 0 550.41 0 550.41-4.15 556.86-4.15 556.86-30.15 550.41-30.15 550.41-34.3 568.51-34.3 568.51-30.15ZM572.16-34.3L607.26-34.3 607.26-23.05 602.66-23.05 602.66-30.15 592.31-30.15 592.31-4.15 598.81-4.15 598.81 0 580.61 0 580.61-4.15 587.16-4.15 587.16-30.15 576.76-30.15 576.76-23.05 572.16-23.05 572.16-34.3ZM643.8-30.15L631.85-13.4 631.85-4.15 638.45-4.15 638.45 0 620 0 620-4.15 626.7-4.15 626.7-13.1 614.4-30.15 609.55-30.15 609.55-34.3 625.3-34.3 625.3-30.15 620.4-30.15 629.75-16.65 638.75-30.15 633.1-30.15 633.1-34.3 648.85-34.3 648.85-30.15 643.8-30.15Z" opacity="1" transform="matrix(1,0,0,1,0,0)" fill="#ffffff" class="slogan-text-1" data-fill-palette-color="quaternary" id="text-1"></path></svg></g></svg></g></svg></g></svg></g><g transform="matrix(1,0,0,1,66.21091420595512,0)"><svg viewBox="0 0 80.73661281524684 91.74615092641687" height="91.74615092641687" width="80.73661281524684"><g><svg version="1.1" xmlns="http://www.w3.org/2000/svg" xmlns:xlink="http://www.w3.org/1999/xlink" x="0" y="0" viewBox="0 0 88 100" enable-background="new 0 0 88 100" xml:space="preserve" height="91.74615092641687" width="80.73661281524684" class="icon-icon-0" data-fill-palette-color="quaternary" id="icon-0"><path d="M0 32v59.906C0 96.377 3.582 100 8 100h72c4.418 0 8-3.623 8-8.094V32H0zM22 94H6V78h16V94zM22 74H6V58h16V74zM22 54H6V38h16V54zM42 94H26V78h16V94zM42 74H26V58h16V74zM42 54H26V38h16V54zM62 94H46V78h16V94zM62 74H46V58h16V74zM62 54H46V38h16V54zM82 94H66V78h16V94zM82 74H66V58h16V74zM82 54H66V38h16V54z" fill="#ffffff" data-fill-palette-color="quaternary"></path><path d="M80 12H67V3c0-1.657-1.344-3-3-3-1.657 0-3 1.343-3 3v9H27V3c0-1.657-1.344-3-3-3-1.657 0-3 1.343-3 3v9H8c-4.418 0-8 3.623-8 8.093V27v0 1h88v-1 0-6.907C88 15.623 84.418 12 80 12zM24 26c-3.313 0-6-2.687-6-6 0-2.219 1.209-4.152 3-5.19V20c0 1.657 1.343 3 3 3 1.656 0 3-1.343 3-3v-5.191c1.792 1.038 3 2.972 3 5.191C30 23.313 27.314 26 24 26zM64 26c-3.313 0-6-2.687-6-6 0-2.219 1.209-4.152 3-5.19V20c0 1.657 1.343 3 3 3 1.656 0 3-1.343 3-3v-5.191c1.792 1.038 3 2.972 3 5.191C70 23.313 67.314 26 64 26z" fill="#ffffff" data-fill-palette-color="quaternary"></path></svg></g></svg></g><g></g></svg></g></svg></g></svg></g></svg></g><defs></defs></svg><rect width="342.8515585177538" height="342.8515585177538" fill="none" stroke="none" visibility="hidden"></rect></g></svg></g></svg>